<svg width="159" height="36" viewBox="0 0 159 36" xmlns="http://www.w3.org/2000/svg" xmlns:xlink="http://www.w3.org/1999/xlink"><title>Group</title><defs><path d="M34.491 13.05C30.778.674 25.425-2.204 13.05 1.509.674 5.222-2.204 10.575 1.509 22.95c3.713 12.376 9.066 15.254 21.441 11.541 12.376-3.713 15.254-9.066 11.541-21.441z" id="a"/></defs><g fill="none" fill-rule="evenodd"><path d="M34.491 13.05C30.778.674 25.425-2.204 13.05 1.509.674 5.222-2.204 10.575 1.509 22.95c3.713 12.376 9.066 15.254 21.441 11.541 12.376-3.713 15.254-9.066 11.541-21.441z" fill="#011E3D" fill-rule="nonzero"/><mask id="b" fill="#fff"><use xlink:href="#a"/></mask><g mask="url(#b)" fill-rule="nonzero"><path d="M8.036 26.277l3.846-20.652h7.182c2.889 0 5.08.477 6.577 1.433 1.496.955 2.243 2.355 2.243 4.2 0 1.28-.383 2.299-1.146 3.057-.764.757-1.872 1.211-3.324 1.361 1.254.19 2.24.658 2.956 1.41.718.752 1.077 1.687 1.077 2.806 0 1.973-.807 3.53-2.417 4.672-1.61 1.141-3.823 1.713-6.636 1.713H8.036zm8.106-5.027h.528c1.263 0 2.144-.13 2.643-.393.5-.262.748-.708.748-1.335 0-.487-.174-.845-.52-1.075-.346-.23-.895-.344-1.646-.344h-1.169l-.584 3.147zm1.497-7.971h.37c.971 0 1.681-.113 2.134-.339.45-.226.678-.584.678-1.074 0-.377-.15-.674-.45-.89-.3-.217-.718-.325-1.25-.325h-.984l-.498 2.628z" fill="#ED1C24"/><path fill="#FFCA04" d="M2.652 29.283v3.026h3.665l26.994-6.203v-.441L2.65 29.283"/></g><path d="M54.592 15.008H55c1.07 0 1.852-.126 2.35-.376.497-.25.747-.648.747-1.19 0-.418-.166-.747-.496-.988-.33-.24-.788-.36-1.375-.36h-1.084l-.55 2.914zm-1.65 8.867h.581c1.394 0 2.365-.147 2.915-.439.55-.292.826-.789.826-1.488 0-.543-.192-.942-.574-1.199-.383-.255-.988-.383-1.815-.383h-1.289l-.644 3.509zM44 29.452l4.243-22.935h7.92c3.185 0 5.603.53 7.253 1.59 1.65 1.06 2.475 2.613 2.475 4.66 0 1.421-.422 2.552-1.265 3.392-.844.841-2.067 1.345-3.67 1.512 1.383.209 2.47.731 3.261 1.566.79.836 1.187 1.875 1.187 3.118 0 2.193-.889 3.924-2.664 5.193-1.775 1.27-4.214 1.904-7.315 1.904H44zm22.692 0l4.259-22.935h8.454l-4.243 22.935h-8.47zm11.425-3.62l4.117-6c.911 1.129 1.888 1.993 2.93 2.594 1.043.6 2.083.9 3.12.9.461 0 .827-.083 1.1-.25.272-.167.409-.387.409-.658 0-.418-.598-.867-1.792-1.348a25.882 25.882 0 0 1-.613-.25c-1.97-.815-3.402-1.757-4.298-2.828-.896-1.07-1.344-2.363-1.344-3.877 0-2.392.875-4.342 2.625-5.851C86.12 6.754 88.41 6 91.239 6c1.634 0 3.14.24 4.518.72a12.131 12.131 0 0 1 3.794 2.163l-3.221 5.624c-.933-.815-1.779-1.42-2.538-1.818-.76-.397-1.46-.595-2.098-.595-.387 0-.7.091-.935.274a.876.876 0 0 0-.354.728c0 .512.692 1.06 2.075 1.646.367.156.654.282.864.375 1.792.805 3.06 1.703 3.803 2.695.744.992 1.116 2.25 1.116 3.776 0 2.402-.935 4.404-2.805 6.007C93.588 29.2 91.228 30 88.378 30a13.99 13.99 0 0 1-5.31-1.058c-1.74-.704-3.39-1.74-4.951-3.11zm20.57 3.62l4.243-22.935h8.439l2.64 7.284c.042.116.104.293.188.533.587 1.588.996 2.961 1.226 4.12l2.216-11.937h8.344l-4.258 22.935h-8.423l-4.259-11.844c-.042 1.076-.277 2.82-.707 5.233l-.032.188-1.178 6.423h-8.439zm27.454 0l4.258-22.935h8.455l-4.243 22.935h-8.47zm11.424-3.62l4.117-6c.912 1.129 1.889 1.993 2.931 2.594 1.042.6 2.082.9 3.12.9.46 0 .827-.083 1.1-.25.272-.167.408-.387.408-.658 0-.418-.597-.867-1.791-1.348a25.881 25.881 0 0 1-.613-.25c-1.97-.815-3.403-1.757-4.298-2.828-.896-1.07-1.344-2.363-1.344-3.877 0-2.392.875-4.342 2.624-5.851C145.57 6.754 147.86 6 150.687 6c1.634 0 3.14.24 4.518.72A12.128 12.128 0 0 1 159 8.883l-3.221 5.624c-.933-.815-1.779-1.42-2.538-1.818-.76-.397-1.46-.595-2.098-.595-.388 0-.7.091-.936.274a.876.876 0 0 0-.353.728c0 .512.692 1.06 2.074 1.646.367.156.655.282.864.375 1.792.805 3.06 1.703 3.804 2.695.743.992 1.116 2.25 1.116 3.776 0 2.402-.936 4.404-2.806 6.007-1.87 1.604-4.23 2.405-7.08 2.405-1.801 0-3.572-.352-5.31-1.058-1.74-.704-3.39-1.74-4.95-3.11z" fill="#FFCB08"/></g></svg>